<svg width="43" height="27" viewBox="0 0 43 27" fill="none" xmlns="http://www.w3.org/2000/svg">
<path d="M31.3173 3.22148C31.8348 3.0285 32.3944 2.92308 32.9786 2.92308C35.6182 2.92308 37.758 5.07556 37.758 7.73077C37.758 10.386 35.6182 12.5385 32.9786 12.5385C32.3944 12.5385 31.8348 12.4331 31.3173 12.24M9.05985 26C10.3816 21.5631 13.7819 20.2308 21.4863 20.2308C29.1907 20.2308 32.591 21.5631 33.9128 26M33.9779 18.3077C38.5719 18.4904 40.7249 19.5352 41.625 22.1538M8.64706 18.3077C4.05309 18.4904 1.90006 19.5352 1 22.1538M11.9378 3.22148C11.4202 3.0285 10.8607 2.92308 10.2764 2.92308C7.63686 2.92308 5.49702 5.07556 5.49702 7.73077C5.49702 10.386 7.63686 12.5385 10.2764 12.5385C10.8607 12.5385 11.4202 12.4331 11.9378 12.24M28.1775 7.73077C28.1775 11.4481 25.1818 14.4615 21.4863 14.4615C17.7909 14.4615 14.7951 11.4481 14.7951 7.73077C14.7951 4.01346 17.7909 1 21.4863 1C25.1818 1 28.1775 4.01346 28.1775 7.73077Z" stroke="#65676B" stroke-width="2" stroke-linecap="round"/>
</svg>
