<svg width="20" height="20" viewBox="0 0 20 20" fill="none" xmlns="http://www.w3.org/2000/svg">
<path fill-rule="evenodd" clip-rule="evenodd" d="M20 18V11H18V18H2V2H9V0H2C0.89543 0 0 0.89543 0 2V18C0 19.1046 0.89543 20 2 20H18C19.1046 20 20 19.1046 20 18ZM17.1781 0.723423C16.7197 0.26142 16.0921 0 15.4374 0C14.7834 0 14.1564 0.26083 13.6954 0.724628L5.3265 9.09342C4.57867 9.75233 4.08844 10.7328 4.00325 11.7873L4 15.0023V16.0023H8.1346C9.2689 15.9245 10.259 15.4295 10.9575 14.6238L19.279 6.30584C19.7407 5.84416 20.0001 5.21799 20.0001 4.56508C20.0001 3.91217 19.7407 3.286 19.279 2.82432L17.1781 0.723423Z" fill="#534672"/>
</svg>
