<svg width="25" height="25" viewBox="0 0 25 25" fill="none" xmlns="http://www.w3.org/2000/svg">
<path fill-rule="evenodd" clip-rule="evenodd" d="M5 5H7.5V3.74994H17.5V5H20V3.74994H22.5V7.00003H2.5V3.74994H5V5ZM2.5 9.50003V8.00003H22.5V9.50003H2.5ZM7.5 1.24993H17.5V0H20V1.24993H22.5C23.8807 1.24993 25 2.36921 25 3.74993V22.4999C25 23.8806 23.8807 24.9999 22.5 24.9999H2.5C1.11929 24.9999 0 23.8806 0 22.4999V3.74993C0 2.36921 1.11929 1.24993 2.5 1.24993H5V0H7.5V1.24993Z" fill="#544673"/>
<path fill-rule="evenodd" clip-rule="evenodd" d="M8.75 15H6.25V12.5H8.75V15Z" fill="white"/>
<path fill-rule="evenodd" clip-rule="evenodd" d="M13.75 15H11.25V12.5H13.75V15Z" fill="white"/>
<path fill-rule="evenodd" clip-rule="evenodd" d="M18.75 15H16.25V12.5H18.75V15Z" fill="white"/>
<path fill-rule="evenodd" clip-rule="evenodd" d="M8.75 20H6.25V17.5H8.75V20Z" fill="white"/>
<path fill-rule="evenodd" clip-rule="evenodd" d="M13.75 20H11.25V17.5H13.75V20Z" fill="white"/>
</svg>
