<svg width="39" height="20" viewBox="0 0 39 20" fill="none" xmlns="http://www.w3.org/2000/svg">
<path d="M11.4583 6.66667C11.4583 8.96785 9.59278 10.8333 7.2916 10.8333C4.99041 10.8333 3.12493 8.96785 3.12493 6.66667C3.12493 4.36548 4.99041 2.5 7.2916 2.5C9.59278 2.5 11.4583 4.36548 11.4583 6.66667Z" fill="#222222"/>
<path d="M35.2083 6.66667C35.2083 8.96785 33.3428 10.8333 31.0416 10.8333C28.7404 10.8333 26.8749 8.96785 26.8749 6.66667C26.8749 4.36548 28.7404 2.5 31.0416 2.5C33.3428 2.5 35.2083 4.36548 35.2083 6.66667Z" fill="#222222"/>
<path d="M24.1475 16.188C24.8431 13.4027 27.605 11.875 30.4758 11.875H31.6074C34.4782 11.875 37.2401 13.4027 37.9357 16.188C38.0935 16.8201 38.2189 17.4882 38.2841 18.1682C38.3368 18.7179 37.8855 19.1667 37.3333 19.1667H24.7499C24.1976 19.1667 23.7464 18.7179 23.7991 18.1682C23.8643 17.4882 23.9897 16.8201 24.1475 16.188Z" fill="#222222"/>
<path d="M0.397521 16.188C1.09312 13.4027 3.85499 11.875 6.72585 11.875H7.85735C10.7282 11.875 13.4901 13.4027 14.1857 16.188C14.3435 16.8201 14.4689 17.4882 14.5341 18.1682C14.5868 18.7179 14.1355 19.1667 13.5833 19.1667H0.999931C0.447647 19.1667 -0.00358044 18.7179 0.049114 18.1682C0.114287 17.4882 0.239664 16.8201 0.397521 16.188Z" fill="#222222"/>
<path d="M23.7499 5C23.7499 7.76142 21.5114 10 18.7499 10C15.9885 10 13.7499 7.76142 13.7499 5C13.7499 2.23858 15.9885 0 18.7499 0C21.5114 0 23.7499 2.23858 23.7499 5Z" fill="#222222"/>
<path d="M10.7234 15.5296C11.5478 12.7797 14.2717 11.25 17.1425 11.25H20.3574C23.2282 11.25 25.952 12.7797 26.7764 15.5296C27.0964 16.5971 27.3601 17.786 27.4585 19.001C27.5031 19.5514 27.0522 20 26.4999 20H10.9999C10.4476 20 9.99676 19.5514 10.0413 19.001C10.1397 17.786 10.4034 16.5971 10.7234 15.5296Z" fill="#222222"/>
</svg>
