<svg width="29" height="26" viewBox="0 0 29 26" fill="none" xmlns="http://www.w3.org/2000/svg">
<path fill-rule="evenodd" clip-rule="evenodd" d="M12.9702 3.76278C13.2087 3.52432 13.5908 3.16667 13.9517 2.87572C14.0866 2.76699 14.2071 2.67679 14.3082 2.6084C14.4093 2.67679 14.5299 2.76699 14.6647 2.87572C15.0256 3.16667 15.4077 3.52432 15.6462 3.76278L22.5111 10.6259V10.6276V10.6493V10.671V10.6928V10.7147V10.7367V10.7588V10.7809V10.8031V10.8254V10.8477V10.8702V10.8927V10.9153V10.9379V10.9607V10.9835V11.0063V11.0293V11.0523V11.0754V11.0985V11.1218V11.1451V11.1684V11.1919V11.2154V11.239V11.2626V11.2863V11.3101V11.3339V11.3578V11.3818V11.4058V11.4299V11.4541V11.4783V11.5026V11.527V11.5514V11.5759V11.6004V11.625V11.6497V11.6744V11.6992V11.724V11.7489V11.7739V11.7989V11.824V11.8491V11.8743V11.8996V11.9249V11.9503V11.9757V12.0011V12.0267V12.0523V12.0779V12.1036V12.1293V12.1551V12.181V12.2069V12.2328V12.2588V12.2849V12.311V12.3371V12.3633V12.3896V12.4158V12.4422V12.4686V12.495V12.5215V12.548V12.5746V12.6012V12.6279V12.6546V12.6814V12.7082V12.735V12.7619V12.7888V12.8158V12.8428V12.8698V12.8969V12.9241V12.9512V12.9784V13.0057V13.033V13.0603V13.0877V13.1151V13.1425V13.17V13.1975V13.225V13.2526V13.2802V13.3079V13.3356V13.3633V13.3911V13.4188V13.4467V13.4745V13.5024V13.5303V13.5582V13.5862V13.6142V13.6422V13.6703V13.6984V13.7265V13.7547V13.7828V13.811V13.8393V13.8675V13.8958V13.9241V13.9524V13.9808V14.0091V14.0375V14.066V14.0944V14.1229V14.1513V14.1799V14.2084V14.2369V14.2655V14.2941V14.3227V14.3513V14.38V14.4086V14.4373V14.466V14.4947V14.5235V14.5522V14.581V14.6098V14.6386V14.6674V14.6962V14.725V14.7539V14.7827V14.8116V14.8405V14.8694V14.8983V14.9272V14.9561V14.9851V15.014V15.043V15.0719V15.1009V15.1299V15.1588V15.1878V15.2168V15.2458V15.2748V15.3039V15.3329V15.3619V15.3909V15.42V15.449V15.478V15.5071V15.5361V15.5651V15.5942V15.6232V15.6523V15.6813V15.7103V15.7394V15.7684V15.7974V15.8265V15.8555V15.8845V15.9135V15.9426V15.9716V16.0006V16.0296V16.0586V16.0876V16.1165V16.1455V16.1745V16.2034V16.2324V16.2613V16.2903V16.3192V16.3481V16.377V16.4059V16.4348V16.4636V16.4925V16.5213V16.5501V16.579V16.6078V16.6365V16.6653V16.6941V16.7228V16.7515V16.7802V16.8089V16.8376V16.8663V16.8949V16.9235V16.9521V16.9807V17.0093V17.0378V17.0663V17.0948V17.1233V17.1518V17.1802V17.2086V17.237V17.2654V17.2937V17.322V17.3503V17.3786V17.4068V17.435V17.4632V17.4914V17.5195V17.5476V17.5757V17.6037V17.6317V17.6597V17.6877V17.7156V17.7435V17.7714V17.7992V17.827V17.8548V17.8825V17.9102V17.9379V17.9655V17.9931V18.0207V18.0482V18.0757V18.1032V18.1306V18.158V18.1853V18.2126V18.2399V18.2671V18.2943V18.3215V18.3486V18.3757V18.4027V18.4297V18.4566V18.4836V18.5104V18.5372V18.564V18.5907V18.6174V18.6441V18.6707V18.6972V18.7237V18.7502V18.7766V18.803V18.8293V18.8556V18.8818V18.908V18.9341V18.9602V18.9862V19.0122V19.0381V19.064V19.0898V19.1156V19.1413V19.167V19.1926V19.2181V19.2436V19.2691V19.2945V19.3198V19.3451V19.3703V19.3955V19.4206V19.4456V19.4706V19.4956V19.5204V19.5453V19.57V19.5947V19.6194V19.6439V19.6684V19.6929V19.7173V19.7416V19.7659V19.7901V19.8142V19.8383V19.8623V19.8862V19.9101V19.9339V19.9577V19.9813V20.005V20.0285V20.052V20.0754V20.0987V20.122V20.1452V20.1683V20.1913V20.2143V20.2372V20.2601V20.2829V20.3055V20.3282V20.3507V20.3732V20.3956V20.4179V20.4402V20.4623V20.4844V20.5065V20.5284V20.5503V20.5721V20.5938V20.6154V20.637V20.6584V20.6798V20.7011V20.7224V20.7435V20.7646V20.7856V20.8065V20.8273V20.848V20.8687V20.8893V20.9097V20.9301V20.9505V20.9707V20.9908V21.0109V21.0308V21.0507V21.0705V21.0902V21.1098V21.1294V21.1488V21.1682V21.1874V21.2066V21.2257V21.2446V21.2635V21.2823V21.301V21.3196V21.3382V21.3566V21.3749V21.3931V21.4113V21.4293V21.4473V21.4651V21.4829V21.5005V21.5181V21.5355V21.5529V21.5702V21.5873V21.6044V21.6213V21.6382V21.6549V21.6716V21.6882V21.7046V21.721V21.7372V21.7533V21.7694V21.7853V21.8011V21.8168V21.8325V21.848V21.8634V21.8787V21.8938V21.9089V21.9239V21.9387V21.9535V21.9681V21.9827V21.9971V22.0114V22.0256V22.0397V22.0536V22.0675V22.0812V22.0949V22.1084V22.1218V22.1351V22.1483V22.1613V22.1743V22.1871V22.1998V22.2124V22.2249V22.2372V22.2495V22.2616V22.2736V22.2854V22.2972V22.3088V22.3204V22.3317V22.343V22.3542V22.3652V22.3761V22.3869V22.3975V22.4081V22.4185V22.4288V22.4389V22.4489V22.4588V22.4686V22.4783C22.5111 22.97 22.3285 23.1809 22.16 23.3022C21.9404 23.4603 21.6469 23.5227 21.4661 23.5227H18.376V17.3671V16.3671H17.376H11.241H10.241V17.3671V23.5227H10.2387H10.2312H10.2238H10.2163H10.2087H10.2012H10.1937H10.1861H10.1785H10.1709H10.1633H10.1557H10.1481H10.1404H10.1328H10.1251H10.1174H10.1097H10.1019H10.0942H10.0865H10.0787H10.0709H10.0631H10.0553H10.0475H10.0396H10.0318H10.0239H10.016H10.0081H10.0002H9.99228H9.98434H9.97639H9.96843H9.96045H9.95245H9.94445H9.93643H9.92839H9.92035H9.91228H9.90421H9.89612H9.88802H9.87991H9.87178H9.86365H9.85549H9.84733H9.83915H9.83096H9.82276H9.81454H9.80631H9.79807H9.78981H9.78155H9.77327H9.76498H9.75668H9.74836H9.74003H9.73169H9.72334H9.71498H9.7066H9.69821H9.68981H9.6814H9.67298H9.66454H9.6561H9.64764H9.63917H9.63069H9.62219H9.61369H9.60517H9.59665H9.58811H9.57956H9.571H9.56243H9.55385H9.54525H9.53665H9.52804H9.51941H9.51077H9.50213H9.49347H9.4848H9.47612H9.46744H9.45874H9.45003H9.44131H9.43258H9.42384H9.41509H9.40633H9.39756H9.38878H9.37999H9.37119H9.36238H9.35356H9.34473H9.33589H9.32704H9.31819H9.30932H9.30044H9.29156H9.28266H9.27376H9.26484H9.25592H9.24699H9.23805H9.2291H9.22014H9.21117H9.2022H9.19321H9.18422H9.17522H9.16621H9.15719H9.14816H9.13912H9.13008H9.12103H9.11197H9.1029H9.09382H9.08473H9.07564H9.06654H9.05743H9.04831H9.03919H9.03006H9.02092H9.01177H9.00261H8.99345H8.98428H8.9751H8.96592H8.95672H8.94752H8.93832H8.9291H8.91988H8.91065H8.90142H8.89218H8.88293H8.87367H8.86441H8.85514H8.84586H8.83658H8.82729H8.818H8.8087H8.79939H8.79007H8.78075H8.77143H8.76209H8.75275H8.74341H8.73406H8.7247H8.71534H8.70597H8.69659H8.68721H8.67783H8.66844H8.65904H8.64964H8.64023H8.63081H8.6214H8.61197H8.60254H8.59311H8.58367H8.57422H8.56477H8.55532H8.54586H8.5364H8.52693H8.51745H8.50797H8.49849H8.489H8.47951H8.47001H8.46051H8.45101H8.4415H8.43199H8.42247H8.41294H8.40342H8.39389H8.38435H8.37482H8.36527H8.35573H8.34618H8.33663H8.32707H8.31751H8.30795H8.29838H8.28881H8.27923H8.26966H8.26008H8.25049H8.24091H8.23132H8.22172H8.21213H8.20253H8.19293H8.18332H8.17371H8.1641H8.15449H8.14488H8.13526H8.12564H8.11602H8.10639H8.09676H8.08713H8.0775H8.06787H8.05823H8.04859H8.03895H8.02931H8.01967H8.01002H8.00038H7.99073H7.98108H7.97142H7.96177H7.95212H7.94246H7.9328H7.92314H7.91348H7.90382H7.89415H7.88449H7.87483H7.86516H7.85549H7.84582H7.83615H7.82649H7.81681H7.80714H7.79747H7.7878H7.77813H7.76845H7.75878H7.74911H7.73943H7.72976H7.72008H7.71041H7.70073H7.69106H7.68138H7.67171H7.66203H7.65236H7.64269H7.63301H7.62334H7.61367H7.60399H7.59432H7.58465H7.57498H7.56531H7.55564H7.54597H7.53631H7.52664H7.51697H7.50731H7.49765H7.48798H7.47832H7.46866H7.45901H7.44935H7.43969H7.43004H7.42039H7.41074H7.40109H7.39144H7.38179H7.37215H7.3625H7.35286H7.34323H7.33359H7.32396H7.31432H7.30469H7.29507H7.28544H7.27582H7.2662H7.25658H7.24696H7.23735H7.22774H7.21813H7.20853H7.19892H7.18932H7.17973H7.17013H7.16054H7.15096C6.65876 23.5227 6.44772 23.3401 6.32641 23.1717C6.16838 22.9522 6.10594 22.6589 6.10594 22.4783V10.6253L12.9702 3.76278ZM4.10594 12.6247L1.72262 15.0074L0.308594 13.593L11.5562 2.34838C11.8289 2.07572 12.2648 1.66668 12.6964 1.31873C12.9105 1.14614 13.1442 0.97171 13.3689 0.835207C13.4812 0.767024 13.6097 0.69695 13.7458 0.641351C13.8687 0.591195 14.07 0.522217 14.3082 0.522217C14.5464 0.522217 14.7477 0.591195 14.8706 0.641351C15.0067 0.69695 15.1352 0.767024 15.2475 0.835207C15.4722 0.97171 15.706 1.14614 15.92 1.31873C16.3516 1.66668 16.7875 2.07572 17.0602 2.34838L28.3078 13.593L26.8938 15.0074L24.5111 12.6253V12.6279V12.6546V12.6814V12.7082V12.735V12.7619V12.7888V12.8158V12.8428V12.8698V12.8969V12.9241V12.9512V12.9784V13.0057V13.033V13.0603V13.0877V13.1151V13.1425V13.17V13.1975V13.225V13.2526V13.2802V13.3079V13.3356V13.3633V13.3911V13.4188V13.4467V13.4745V13.5024V13.5303V13.5582V13.5862V13.6142V13.6422V13.6703V13.6984V13.7265V13.7547V13.7828V13.811V13.8393V13.8675V13.8958V13.9241V13.9524V13.9808V14.0091V14.0375V14.066V14.0944V14.1229V14.1513V14.1799V14.2084V14.2369V14.2655V14.2941V14.3227V14.3513V14.38V14.4086V14.4373V14.466V14.4947V14.5235V14.5522V14.581V14.6098V14.6386V14.6674V14.6962V14.725V14.7539V14.7827V14.8116V14.8405V14.8694V14.8983V14.9272V14.9561V14.9851V15.014V15.043V15.0719V15.1009V15.1299V15.1588V15.1878V15.2168V15.2458V15.2748V15.3039V15.3329V15.3619V15.3909V15.42V15.449V15.478V15.5071V15.5361V15.5651V15.5942V15.6232V15.6523V15.6813V15.7103V15.7394V15.7684V15.7974V15.8265V15.8555V15.8845V15.9135V15.9426V15.9716V16.0006V16.0296V16.0586V16.0876V16.1165V16.1455V16.1745V16.2034V16.2324V16.2613V16.2903V16.3192V16.3481V16.377V16.4059V16.4348V16.4636V16.4925V16.5213V16.5501V16.579V16.6078V16.6365V16.6653V16.6941V16.7228V16.7515V16.7802V16.8089V16.8376V16.8663V16.8949V16.9235V16.9521V16.9807V17.0093V17.0378V17.0663V17.0948V17.1233V17.1518V17.1802V17.2086V17.237V17.2654V17.2937V17.322V17.3503V17.3786V17.4068V17.435V17.4632V17.4914V17.5195V17.5476V17.5757V17.6037V17.6317V17.6597V17.6877V17.7156V17.7435V17.7714V17.7992V17.827V17.8548V17.8825V17.9102V17.9379V17.9655V17.9931V18.0207V18.0482V18.0757V18.1032V18.1306V18.158V18.1853V18.2126V18.2399V18.2671V18.2943V18.3215V18.3486V18.3757V18.4027V18.4297V18.4566V18.4836V18.5104V18.5372V18.564V18.5907V18.6174V18.6441V18.6707V18.6972V18.7237V18.7502V18.7766V18.803V18.8293V18.8556V18.8818V18.908V18.9341V18.9602V18.9862V19.0122V19.0381V19.064V19.0898V19.1156V19.1413V19.167V19.1926V19.2181V19.2436V19.2691V19.2945V19.3198V19.3451V19.3703V19.3955V19.4206V19.4456V19.4706V19.4956V19.5204V19.5453V19.57V19.5947V19.6194V19.6439V19.6684V19.6929V19.7173V19.7416V19.7659V19.7901V19.8142V19.8383V19.8623V19.8862V19.9101V19.9339V19.9577V19.9813V20.005V20.0285V20.052V20.0754V20.0987V20.122V20.1452V20.1683V20.1913V20.2143V20.2372V20.2601V20.2829V20.3055V20.3282V20.3507V20.3732V20.3956V20.4179V20.4402V20.4623V20.4844V20.5065V20.5284V20.5503V20.5721V20.5938V20.6154V20.637V20.6584V20.6798V20.7011V20.7224V20.7435V20.7646V20.7856V20.8065V20.8273V20.848V20.8687V20.8893V20.9097V20.9301V20.9505V20.9707V20.9908V21.0109V21.0308V21.0507V21.0705V21.0902V21.1098V21.1294V21.1488V21.1682V21.1874V21.2066V21.2257V21.2446V21.2635V21.2823V21.301V21.3196V21.3382V21.3566V21.3749V21.3931V21.4113V21.4293V21.4473V21.4651V21.4829V21.5005V21.5181V21.5355V21.5529V21.5702V21.5873V21.6044V21.6213V21.6382V21.6549V21.6716V21.6882V21.7046V21.721V21.7372V21.7533V21.7694V21.7853V21.8011V21.8168V21.8325V21.848V21.8634V21.8787V21.8938V21.9089V21.9239V21.9387V21.9535V21.9681V21.9827V21.9971V22.0114V22.0256V22.0397V22.0536V22.0675V22.0812V22.0949V22.1084V22.1218V22.1351V22.1483V22.1613V22.1743V22.1871V22.1998V22.2124V22.2249V22.2372V22.2495V22.2616V22.2736V22.2854V22.2972V22.3088V22.3204V22.3317V22.343V22.3542V22.3652V22.3761V22.3869V22.3975V22.4081V22.4185V22.4288V22.4389V22.4489V22.4588V22.4686V22.4783C24.5111 23.6221 24.0119 24.4334 23.3284 24.9254C22.6959 25.3808 21.9669 25.5227 21.4661 25.5227H17.376H16.376V24.5227V18.3671H12.241V24.5227V25.5227H11.241H11.237H11.2329H11.2289H11.2248H11.2207H11.2166H11.2124H11.2082H11.204H11.1998H11.1956H11.1913H11.187H11.1826H11.1783H11.1739H11.1695H11.1651H11.1607H11.1562H11.1517H11.1472H11.1426H11.1381H11.1335H11.1289H11.1242H11.1196H11.1149H11.1102H11.1054H11.1007H11.0959H11.0911H11.0863H11.0814H11.0766H11.0717H11.0668H11.0618H11.0569H11.0519H11.0469H11.0419H11.0368H11.0317H11.0266H11.0215H11.0164H11.0112H11.006H11.0008H10.9956H10.9903H10.9851H10.9798H10.9745H10.9691H10.9638H10.9584H10.953H10.9475H10.9421H10.9366H10.9311H10.9256H10.9201H10.9145H10.909H10.9034H10.8978H10.8921H10.8865H10.8808H10.8751H10.8693H10.8636H10.8578H10.8521H10.8462H10.8404H10.8346H10.8287H10.8228H10.8169H10.811H10.805H10.7991H10.7931H10.7871H10.781H10.775H10.7689H10.7628H10.7567H10.7506H10.7445H10.7383H10.7321H10.7259H10.7197H10.7134H10.7072H10.7009H10.6946H10.6882H10.6819H10.6755H10.6692H10.6628H10.6563H10.6499H10.6435H10.637H10.6305H10.624H10.6174H10.6109H10.6043H10.5977H10.5911H10.5845H10.5779H10.5712H10.5645H10.5578H10.5511H10.5444H10.5377H10.5309H10.5241H10.5173H10.5105H10.5036H10.4968H10.4899H10.483H10.4761H10.4692H10.4622H10.4553H10.4483H10.4413H10.4343H10.4273H10.4202H10.4132H10.4061H10.399H10.3919H10.3847H10.3776H10.3704H10.3633H10.3561H10.3488H10.3416H10.3344H10.3271H10.3198H10.3125H10.3052H10.2979H10.2906H10.2832H10.2758H10.2684H10.261H10.2536H10.2462H10.2387H10.2312H10.2238H10.2163H10.2087H10.2012H10.1937H10.1861H10.1785H10.1709H10.1633H10.1557H10.1481H10.1404H10.1328H10.1251H10.1174H10.1097H10.1019H10.0942H10.0865H10.0787H10.0709H10.0631H10.0553H10.0475H10.0396H10.0318H10.0239H10.016H10.0081H10.0002H9.99228H9.98434H9.97639H9.96843H9.96045H9.95245H9.94445H9.93643H9.92839H9.92035H9.91228H9.90421H9.89612H9.88802H9.87991H9.87178H9.86365H9.85549H9.84733H9.83915H9.83096H9.82276H9.81454H9.80631H9.79807H9.78981H9.78155H9.77327H9.76498H9.75668H9.74836H9.74003H9.73169H9.72334H9.71498H9.7066H9.69821H9.68981H9.6814H9.67298H9.66454H9.6561H9.64764H9.63917H9.63069H9.62219H9.61369H9.60517H9.59665H9.58811H9.57956H9.571H9.56243H9.55385H9.54525H9.53665H9.52804H9.51941H9.51077H9.50213H9.49347H9.4848H9.47612H9.46744H9.45874H9.45003H9.44131H9.43258H9.42384H9.41509H9.40633H9.39756H9.38878H9.37999H9.37119H9.36238H9.35356H9.34473H9.33589H9.32704H9.31819H9.30932H9.30044H9.29156H9.28266H9.27376H9.26484H9.25592H9.24699H9.23805H9.2291H9.22014H9.21117H9.2022H9.19321H9.18422H9.17522H9.16621H9.15719H9.14816H9.13912H9.13008H9.12103H9.11197H9.1029H9.09382H9.08473H9.07564H9.06654H9.05743H9.04831H9.03919H9.03006H9.02092H9.01177H9.00261H8.99345H8.98428H8.9751H8.96592H8.95672H8.94752H8.93832H8.9291H8.91988H8.91065H8.90142H8.89218H8.88293H8.87367H8.86441H8.85514H8.84586H8.83658H8.82729H8.818H8.8087H8.79939H8.79007H8.78075H8.77143H8.76209H8.75275H8.74341H8.73406H8.7247H8.71534H8.70597H8.69659H8.68721H8.67783H8.66844H8.65904H8.64964H8.64023H8.63081H8.6214H8.61197H8.60254H8.59311H8.58367H8.57422H8.56477H8.55532H8.54586H8.5364H8.52693H8.51745H8.50797H8.49849H8.489H8.47951H8.47001H8.46051H8.45101H8.4415H8.43199H8.42247H8.41294H8.40342H8.39389H8.38435H8.37482H8.36527H8.35573H8.34618H8.33663H8.32707H8.31751H8.30795H8.29838H8.28881H8.27923H8.26966H8.26008H8.25049H8.24091H8.23132H8.22172H8.21213H8.20253H8.19293H8.18332H8.17371H8.1641H8.15449H8.14488H8.13526H8.12564H8.11602H8.10639H8.09676H8.08713H8.0775H8.06787H8.05823H8.04859H8.03895H8.02931H8.01967H8.01002H8.00038H7.99073H7.98108H7.97142H7.96177H7.95212H7.94246H7.9328H7.92314H7.91348H7.90382H7.89415H7.88449H7.87483H7.86516H7.85549H7.84582H7.83615H7.82649H7.81681H7.80714H7.79747H7.7878H7.77813H7.76845H7.75878H7.74911H7.73943H7.72976H7.72008H7.71041H7.70073H7.69106H7.68138H7.67171H7.66203H7.65236H7.64269H7.63301H7.62334H7.61367H7.60399H7.59432H7.58465H7.57498H7.56531H7.55564H7.54597H7.53631H7.52664H7.51697H7.50731H7.49765H7.48798H7.47832H7.46866H7.45901H7.44935H7.43969H7.43004H7.42039H7.41074H7.40109H7.39144H7.38179H7.37215H7.3625H7.35286H7.34323H7.33359H7.32396H7.31432H7.30469H7.29507H7.28544H7.27582H7.2662H7.25658H7.24696H7.23735H7.22774H7.21813H7.20853H7.19892H7.18932H7.17973H7.17013H7.16054H7.15096C6.00714 25.5227 5.19568 25.0239 4.70348 24.3405C4.248 23.708 4.10594 22.9791 4.10594 22.4783V12.6247Z" fill="#65676B"/>
</svg>
