<svg width="28" height="26" viewBox="0 0 28 26" fill="none" xmlns="http://www.w3.org/2000/svg">
<path fill-rule="evenodd" clip-rule="evenodd" d="M4.80754 11.578L1.44481 15.09L0.000244141 13.7068L11.2339 1.97465C11.5059 1.6906 11.9409 1.26423 12.3716 0.901482C12.5851 0.721629 12.8185 0.539609 13.0433 0.396989C13.1555 0.325795 13.2847 0.252137 13.4222 0.193468C13.5456 0.140845 13.7522 0.0664062 13.9987 0.0664062C14.2452 0.0664062 14.4518 0.140845 14.5752 0.193468C14.7127 0.252137 14.8419 0.325795 14.9541 0.396989C15.1789 0.539609 15.4123 0.721629 15.6258 0.901482C16.0565 1.26423 16.4915 1.6906 16.7635 1.97465L27.9972 13.7068L26.5526 15.09L23.1899 11.5781V22.9307C23.1899 24.6372 21.8283 25.0638 21.1474 25.0638H17.0625V17.5979H10.935V25.0638H6.85002C5.21603 25.0638 4.80754 23.6417 4.80754 22.9307V11.578Z" fill="#544673"/>
</svg>
