<svg width="14" height="14" viewBox="0 0 14 14" fill="none" xmlns="http://www.w3.org/2000/svg">
<path fill-rule="evenodd" clip-rule="evenodd" d="M14 7C14 10.866 10.866 14 7 14C3.13401 14 0 10.866 0 7C0 3.13401 3.13401 0 7 0C10.866 0 14 3.13401 14 7ZM7.77778 3.88889C7.77778 4.31844 7.42955 4.66667 7 4.66667C6.57044 4.66667 6.22222 4.31844 6.22222 3.88889C6.22222 3.45933 6.57044 3.11111 7 3.11111C7.42955 3.11111 7.77778 3.45933 7.77778 3.88889ZM8 10.8889V6.22222H6V10.8889H8Z" fill="#65676B"/>
</svg>
