<?xml version="1.0" encoding="UTF-8" standalone="no"?>
<svg
   width="20"
   height="20"
   viewBox="0 0 20 20"
   fill="none"
   version="1.1"
   id="svg12"
   sodipodi:docname="like-icon.svg"
   inkscape:version="1.2 (dc2aedaf03, 2022-05-15)"
   xmlns:inkscape="http://www.inkscape.org/namespaces/inkscape"
   xmlns:sodipodi="http://sodipodi.sourceforge.net/DTD/sodipodi-0.dtd"
   xmlns="http://www.w3.org/2000/svg"
   xmlns:svg="http://www.w3.org/2000/svg">
  <defs
     id="defs16" />
  <sodipodi:namedview
     id="namedview14"
     pagecolor="#ffffff"
     bordercolor="#000000"
     borderopacity="0.25"
     inkscape:showpageshadow="2"
     inkscape:pageopacity="0.0"
     inkscape:pagecheckerboard="0"
     inkscape:deskcolor="#d1d1d1"
     showgrid="false"
     inkscape:zoom="41.45"
     inkscape:cx="7.8528347"
     inkscape:cy="9.9879373"
     inkscape:window-width="1920"
     inkscape:window-height="1009"
     inkscape:window-x="1912"
     inkscape:window-y="-8"
     inkscape:window-maximized="1"
     inkscape:current-layer="svg12" />
  <path
     fill-rule="evenodd"
     clip-rule="evenodd"
     d="M20 9.9991C20 8.31662 18.8696 6.9991 17 6.9991H13.927L13.9548 6.92337C13.9826 6.8482 14.0609 6.64173 14.137 6.44121L14.1371 6.44094L14.1375 6.44001C14.2046 6.26299 14.2699 6.09083 14.2971 6.018C14.4872 5.50766 14.626 5.09646 14.7382 4.68923C14.9079 4.07373 15 3.51921 15 2.9991C15 1.52709 14.0919 0.612818 12.7483 0.221586C12.1423 0.0451276 11.6148 -0.000992379 11 -0.000900269H10.5205L10.2203 0.372984C9.88113 0.795334 9.21501 1.55651 8.44703 2.43407L8.44701 2.4341C7.03026 4.05302 5.2669 6.068 4.57035 7.0825C4.38961 7.02882 4.19817 6.99999 4 6.99999H2C0.89543 6.99999 0 7.89542 0 8.99999V18C0 19.1046 0.89543 20 2 20H4C4.68712 20 5.29331 19.6535 5.65337 19.1257C5.95674 19.3219 6.29522 19.4856 6.66312 19.6173C7.50544 19.9187 8.34085 20.0112 9.0344 19.9985L16 19.9991C18.7551 19.9991 20 15.9427 20 9.9991ZM7.33688 17.7342C6.45197 17.4176 6 16.9013 6 15.9991V8.99999V8.9991C6 8.7589 6.04443 8.54621 6.14171 8.31908C6.31645 7.9111 7.90193 6.10224 9.40467 4.38778L9.40471 4.38774C10.1803 3.5029 10.9338 2.64322 11.46 2.01423C11.7114 2.03309 11.9484 2.07173 12.1891 2.14183C12.7622 2.3087 13 2.54813 13 2.9991C13 3.31568 12.9359 3.70141 12.8101 4.15771C12.7161 4.49868 12.5944 4.85947 12.4229 5.31976C12.3986 5.3851 12.3378 5.5452 12.2733 5.71542L12.2731 5.71587C12.1944 5.92313 12.1102 6.14529 12.079 6.22965C11.9489 6.58127 11.8633 6.84017 11.8047 7.07541C11.5555 8.07545 11.8055 8.9991 13 8.9991H17C17.6912 8.9991 18 9.35899 18 9.9991C18 14.7898 17.0151 17.9991 16 17.9991H9L8.96307 17.9997C8.52537 18.0076 7.91062 17.9395 7.33688 17.7342ZM2 18V8.99999H4V18H2Z"
     fill="black"
     id="path10"
     style="fill:#33333f;fill-opacity:1" />
</svg>
