<svg width="18" height="20" viewBox="0 0 18 20" fill="none" xmlns="http://www.w3.org/2000/svg">
<path d="M13.7507 5C13.7507 7.76142 11.5121 10 8.7507 10C5.98928 10 3.7507 7.76142 3.7507 5C3.7507 2.23858 5.98928 0 8.7507 0C11.5121 0 13.7507 2.23858 13.7507 5Z" fill="#222222"/>
<path d="M0.724213 15.5296C1.54861 12.7797 4.27243 11.25 7.14328 11.25H10.3581C13.229 11.25 15.9528 12.7797 16.7772 15.5296C17.0972 16.5971 17.3609 17.786 17.4593 19.001C17.5039 19.5514 17.053 20 16.5007 20H1.0007C0.448418 20 -0.00247236 19.5514 0.0421077 19.001C0.140497 17.786 0.404187 16.5971 0.724213 15.5296Z" fill="#222222"/>
</svg>
