<svg width="47" height="32" viewBox="0 0 47 32" fill="none" xmlns="http://www.w3.org/2000/svg">
<path d="M4.1875 15.5234V22.0762H9.14844V20.3184H11.0723V22.0762C11.0723 22.3431 11.0202 22.5938 10.916 22.8281C10.8184 23.0625 10.6816 23.2676 10.5059 23.4434C10.3366 23.6126 10.1348 23.7493 9.90039 23.8535C9.66602 23.9512 9.41536 24 9.14844 24H4.1875C3.92708 24 3.67969 23.9512 3.44531 23.8535C3.21094 23.7493 3.00586 23.6126 2.83008 23.4434C2.66081 23.2676 2.52409 23.0625 2.41992 22.8281C2.32227 22.5938 2.27344 22.3431 2.27344 22.0762V15.5234C2.27344 15.2565 2.32227 15.0059 2.41992 14.7715C2.52409 14.5371 2.66081 14.3353 2.83008 14.166C3.00586 13.9902 3.21094 13.8535 3.44531 13.7559C3.67969 13.6517 3.92708 13.5996 4.1875 13.5996H9.14844C9.41536 13.5996 9.66602 13.6517 9.90039 13.7559C10.1348 13.8535 10.3366 13.9902 10.5059 14.166C10.6816 14.3353 10.8184 14.5371 10.916 14.7715C11.0202 15.0059 11.0723 15.2565 11.0723 15.5234V17.2812H9.14844V15.5234H4.1875ZM22.5273 15.5234V24H20.6035V15.5234H16.1992V24H14.2852V13.5996H16.1992V15.4355C16.2122 15.1816 16.2708 14.944 16.375 14.7227C16.4792 14.4948 16.6159 14.2995 16.7852 14.1367C16.9609 13.9674 17.1628 13.8372 17.3906 13.7461C17.6185 13.6484 17.8626 13.5996 18.123 13.5996H20.6035C20.8574 13.5996 21.0983 13.6484 21.3262 13.7461C21.554 13.8372 21.7559 13.9674 21.9316 14.1367C22.1074 14.2995 22.2474 14.4948 22.3516 14.7227C22.4622 14.944 22.5208 15.1816 22.5273 15.4355C22.5404 15.1816 22.5957 14.944 22.6934 14.7227C22.7975 14.4948 22.9342 14.2995 23.1035 14.1367C23.2793 13.9674 23.4811 13.8372 23.709 13.7461C23.9368 13.6484 24.181 13.5996 24.4414 13.5996H26.9219C27.1888 13.5996 27.4395 13.6517 27.6738 13.7559C27.9082 13.8535 28.11 13.9902 28.2793 14.166C28.4551 14.3353 28.5918 14.5371 28.6895 14.7715C28.7936 15.0059 28.8457 15.2565 28.8457 15.5234V24H26.9219V15.5234H22.5273ZM34.0801 13.5996V24H32.1562V13.5996H34.0801ZM32.0586 9.5957H34.1777V11.5977H32.0586V9.5957ZM43.6699 22.0762V19.6641H39.1094C38.8424 19.6641 38.5918 19.6152 38.3574 19.5176C38.123 19.4134 37.918 19.2767 37.7422 19.1074C37.5729 18.9316 37.4362 18.7266 37.332 18.4922C37.2344 18.2578 37.1855 18.0072 37.1855 17.7402V15.5234C37.1855 15.2565 37.2344 15.0059 37.332 14.7715C37.4362 14.5371 37.5729 14.3353 37.7422 14.166C37.918 13.9902 38.123 13.8535 38.3574 13.7559C38.5918 13.6517 38.8424 13.5996 39.1094 13.5996H45.1934V15.5234H39.1094V17.7402H43.6699C43.9368 17.7402 44.1842 17.7923 44.4121 17.8965C44.6465 17.9941 44.8516 18.1309 45.0273 18.3066C45.2031 18.4759 45.3398 18.6777 45.4375 18.9121C45.5417 19.1465 45.5938 19.3971 45.5938 19.6641V22.0762C45.5938 22.3431 45.5417 22.5938 45.4375 22.8281C45.3398 23.0625 45.2031 23.2676 45.0273 23.4434C44.8516 23.6126 44.6465 23.7493 44.4121 23.8535C44.1842 23.9512 43.9368 24 43.6699 24H37.1855V22.0762H43.6699Z" fill="#544673"/>
</svg>
