<svg width="23" height="21" viewBox="0 0 23 21" fill="none" xmlns="http://www.w3.org/2000/svg">
<circle cx="7.66536" cy="5.33333" r="4.33333" stroke="#65676B" stroke-width="2" stroke-linecap="round"/>
<path d="M13.4019 5.5C13.7997 4.81095 14.455 4.30815 15.2235 4.10222C15.9921 3.89629 16.8109 4.0041 17.5 4.40192C18.1891 4.79975 18.6918 5.455 18.8978 6.22354C19.1037 6.99208 18.9959 7.81095 18.5981 8.5C18.2003 9.18905 17.545 9.69185 16.7765 9.89778C16.0079 10.1037 15.1891 9.9959 14.5 9.59808C13.8109 9.20025 13.3082 8.545 13.1022 7.77646C12.8963 7.00792 13.0041 6.18905 13.4019 5.5L13.4019 5.5Z" stroke="#65676B" stroke-width="2"/>
<path d="M15.8021 18.3333L14.8218 18.5308L14.9835 19.3333H15.8021V18.3333ZM21.0371 17.2323L20.0808 17.5247L20.0808 17.5247L21.0371 17.2323ZM13 13.9467L12.3953 13.1502L11.238 14.0289L12.4721 14.796L13 13.9467ZM20.1586 17.3333H15.8021V19.3333H20.1586V17.3333ZM20.0808 17.5247C20.0762 17.5095 20.072 17.4795 20.0797 17.443C20.0868 17.4085 20.1015 17.3823 20.1155 17.3652C20.1427 17.3319 20.1654 17.3333 20.1586 17.3333V19.3333C21.3207 19.3333 22.3972 18.2606 21.9934 16.9399L20.0808 17.5247ZM15.958 14C18.5504 14 19.6298 16.0496 20.0808 17.5247L21.9934 16.9399C21.4895 15.2918 19.9703 12 15.958 12V14ZM13.6047 14.7432C14.1743 14.3108 14.9271 14 15.958 14V12C14.4834 12 13.3072 12.4579 12.3953 13.1502L13.6047 14.7432ZM12.4721 14.796C13.9731 15.7291 14.5822 17.341 14.8218 18.5308L16.7825 18.1359C16.4991 16.7289 15.7186 14.4592 13.5279 13.0974L12.4721 14.796Z" fill="#65676B"/>
<path d="M7.66667 13.3333C12.7105 13.3333 13.9383 17.1493 14.2372 19.0071C14.3249 19.5524 13.8856 19.9999 13.3333 19.9999H2C1.44771 19.9999 1.00844 19.5524 1.09616 19.0071C1.39503 17.1493 2.62282 13.3333 7.66667 13.3333Z" stroke="#65676B" stroke-width="2" stroke-linecap="round"/>
</svg>
