<?xml version="1.0" encoding="UTF-8" standalone="no"?>
<svg
   width="27"
   height="25"
   viewBox="0 0 27 25"
   fill="none"
   version="1.1"
   id="svg8325"
   sodipodi:docname="project-ideas-icon.svg"
   inkscape:version="1.2 (dc2aedaf03, 2022-05-15)"
   xmlns:inkscape="http://www.inkscape.org/namespaces/inkscape"
   xmlns:sodipodi="http://sodipodi.sourceforge.net/DTD/sodipodi-0.dtd"
   xmlns="http://www.w3.org/2000/svg"
   xmlns:svg="http://www.w3.org/2000/svg">
  <defs
     id="defs8329" />
  <sodipodi:namedview
     id="namedview8327"
     pagecolor="#ffffff"
     bordercolor="#000000"
     borderopacity="0.25"
     inkscape:showpageshadow="2"
     inkscape:pageopacity="0.0"
     inkscape:pagecheckerboard="0"
     inkscape:deskcolor="#d1d1d1"
     showgrid="false"
     inkscape:zoom="33.16"
     inkscape:cx="8.7002413"
     inkscape:cy="12.484922"
     inkscape:window-width="1920"
     inkscape:window-height="1009"
     inkscape:window-x="1912"
     inkscape:window-y="-8"
     inkscape:window-maximized="1"
     inkscape:current-layer="svg8325" />
  <ellipse
     cx="13.5"
     cy="12.5"
     rx="1.26639"
     ry="1.25"
     fill="#65676B"
     id="ellipse8317" />
  <path
     d="M17.5657 12.5C17.5657 15.8558 17.0126 18.8475 16.1552 20.9633C15.7255 22.0237 15.2389 22.8154 14.7498 23.3259C14.2632 23.8338 13.8409 24 13.5001 24C13.1594 24 12.7371 23.8338 12.2504 23.3259C11.7613 22.8154 11.2748 22.0237 10.845 20.9633C9.98762 18.8475 9.43457 15.8558 9.43457 12.5C9.43457 9.14425 9.98762 6.15251 10.845 4.03674C11.2748 2.97627 11.7613 2.18463 12.2504 1.67413C12.7371 1.16624 13.1594 1 13.5001 1C13.8409 1 14.2632 1.16624 14.7498 1.67413C15.2389 2.18463 15.7255 2.97627 16.1552 4.03674C17.0126 6.15251 17.5657 9.14425 17.5657 12.5Z"
     stroke="#65676B"
     stroke-width="2"
     id="path8319" />
  <path
     d="M15.528 15.967C12.5811 17.6464 9.67636 18.6708 7.38772 18.9963C6.24033 19.1595 5.30081 19.1393 4.60758 18.9763C3.91682 18.8138 3.5666 18.5368 3.40171 18.2549C3.23682 17.973 3.16891 17.5352 3.37175 16.8635C3.57533 16.1893 4.02738 15.3761 4.74424 14.4769C6.17412 12.6833 8.52536 10.7125 11.4722 9.0331C14.4191 7.35374 17.3239 6.32926 19.6125 6.00378C20.7599 5.84061 21.6994 5.8608 22.3927 6.02383C23.0834 6.18628 23.4336 6.46327 23.5985 6.74517C23.7634 7.02708 23.8313 7.46495 23.6285 8.13664C23.4249 8.81075 22.9729 9.62397 22.256 10.5232C20.8261 12.3168 18.4749 14.2876 15.528 15.967Z"
     stroke="#65676B"
     stroke-width="2"
     id="path8321" />
  <path
     d="M15.528 9.03301C12.5811 7.35365 9.67636 6.32916 7.38772 6.00369C6.24033 5.84051 5.30081 5.8607 4.60758 6.02373C3.91682 6.18619 3.5666 6.46317 3.40171 6.74508C3.23682 7.02698 3.16891 7.46485 3.37175 8.13655C3.57533 8.81065 4.02738 9.62387 4.74424 10.5231C6.17412 12.3167 8.52536 14.2875 11.4722 15.9669C14.4191 17.6463 17.3239 18.6707 19.6125 18.9962C20.7599 19.1594 21.6994 19.1392 22.3927 18.9762C23.0834 18.8137 23.4336 18.5367 23.5985 18.2548C23.7634 17.9729 23.8313 17.5351 23.6285 16.8634C23.4249 16.1892 22.9729 15.376 22.256 14.4768C20.8261 12.6832 18.4749 10.7124 15.528 9.03301Z"
     stroke="#65676B"
     stroke-width="2"
     id="path8323" />
</svg>
