<svg width="12" height="10" viewBox="0 0 12 10" fill="none" xmlns="http://www.w3.org/2000/svg">
<circle cx="6" cy="5" r="4.5" stroke="#333333"/>
<path d="M7.375 5C7.375 6.33663 7.17098 7.52444 6.85766 8.35997C6.70031 8.77958 6.525 9.08442 6.35571 9.27537C6.18589 9.46691 6.06454 9.5 6 9.5C5.93546 9.5 5.81411 9.46691 5.6443 9.27537C5.475 9.08442 5.29969 8.77958 5.14234 8.35997C4.82902 7.52444 4.625 6.33663 4.625 5C4.625 3.66337 4.82902 2.47556 5.14234 1.64003C5.29969 1.22042 5.475 0.91558 5.64429 0.724628C5.81411 0.533094 5.93546 0.5 6 0.5C6.06454 0.5 6.18589 0.533094 6.35571 0.724628C6.525 0.91558 6.70031 1.22042 6.85766 1.64003C7.17098 2.47556 7.375 3.66337 7.375 5Z" stroke="#222222"/>
<path d="M1.3125 5H10.6875" stroke="#333333" stroke-linecap="round"/>
</svg>
