<svg width="48" height="48" viewBox="0 0 48 48" fill="none" xmlns="http://www.w3.org/2000/svg">
<g filter="url(#filter0_d_139_12842)">
<path d="M44 22C44 33.0457 35.0457 42 24 42C12.9543 42 4 33.0457 4 22C4 10.9543 12.9543 2 24 2C35.0457 2 44 10.9543 44 22Z" fill="white"/>
<path d="M14 19C14 17.1144 14 16.1716 14.5858 15.5858C15.1716 15 16.1144 15 18 15H30C31.8856 15 32.8284 15 33.4142 15.5858C34 16.1716 34 17.1144 34 19V19C34 19.4714 34 19.7071 33.8536 19.8536C33.7071 20 33.4714 20 33 20H15C14.5286 20 14.2929 20 14.1464 19.8536C14 19.7071 14 19.4714 14 19V19Z" fill="#222222"/>
<path fill-rule="evenodd" clip-rule="evenodd" d="M14 28C14 29.8856 14 30.8284 14.5858 31.4142C15.1716 32 16.1144 32 18 32H30C31.8856 32 32.8284 32 33.4142 31.4142C34 30.8284 34 29.8856 34 28V23C34 22.5286 34 22.2929 33.8536 22.1464C33.7071 22 33.4714 22 33 22H15C14.5286 22 14.2929 22 14.1464 22.1464C14 22.2929 14 22.5286 14 23V28ZM19 25C19 24.5286 19 24.2929 19.1464 24.1464C19.2929 24 19.5286 24 20 24H22C22.4714 24 22.7071 24 22.8536 24.1464C23 24.2929 23 24.5286 23 25C23 25.4714 23 25.7071 22.8536 25.8536C22.7071 26 22.4714 26 22 26H20C19.5286 26 19.2929 26 19.1464 25.8536C19 25.7071 19 25.4714 19 25ZM19.1464 28.1464C19 28.2929 19 28.5286 19 29C19 29.4714 19 29.7071 19.1464 29.8536C19.2929 30 19.5286 30 20 30H22C22.4714 30 22.7071 30 22.8536 29.8536C23 29.7071 23 29.4714 23 29C23 28.5286 23 28.2929 22.8536 28.1464C22.7071 28 22.4714 28 22 28H20C19.5286 28 19.2929 28 19.1464 28.1464ZM25 25C25 24.5286 25 24.2929 25.1464 24.1464C25.2929 24 25.5286 24 26 24H28C28.4714 24 28.7071 24 28.8536 24.1464C29 24.2929 29 24.5286 29 25C29 25.4714 29 25.7071 28.8536 25.8536C28.7071 26 28.4714 26 28 26H26C25.5286 26 25.2929 26 25.1464 25.8536C25 25.7071 25 25.4714 25 25ZM25.1464 28.1464C25 28.2929 25 28.5286 25 29C25 29.4714 25 29.7071 25.1464 29.8536C25.2929 30 25.5286 30 26 30H28C28.4714 30 28.7071 30 28.8536 29.8536C29 29.7071 29 29.4714 29 29C29 28.5286 29 28.2929 28.8536 28.1464C28.7071 28 28.4714 28 28 28H26C25.5286 28 25.2929 28 25.1464 28.1464Z" fill="#222222"/>
<path d="M19 13L19 16" stroke="#222222" stroke-width="2" stroke-linecap="round"/>
<path d="M29 13L29 16" stroke="#222222" stroke-width="2" stroke-linecap="round"/>
</g>
<defs>
<filter id="filter0_d_139_12842" x="0" y="0" width="48" height="48" filterUnits="userSpaceOnUse" color-interpolation-filters="sRGB">
<feFlood flood-opacity="0" result="BackgroundImageFix"/>
<feColorMatrix in="SourceAlpha" type="matrix" values="0 0 0 0 0 0 0 0 0 0 0 0 0 0 0 0 0 0 127 0" result="hardAlpha"/>
<feOffset dy="2"/>
<feGaussianBlur stdDeviation="2"/>
<feComposite in2="hardAlpha" operator="out"/>
<feColorMatrix type="matrix" values="0 0 0 0 0 0 0 0 0 0 0 0 0 0 0 0 0 0 0.25 0"/>
<feBlend mode="normal" in2="BackgroundImageFix" result="effect1_dropShadow_139_12842"/>
<feBlend mode="normal" in="SourceGraphic" in2="effect1_dropShadow_139_12842" result="shape"/>
</filter>
</defs>
</svg>
