<svg width="48" height="48" viewBox="0 0 48 48" fill="none" xmlns="http://www.w3.org/2000/svg">
<g filter="url(#filter0_d_139_12829)">
<path d="M44 20C44 31.0457 35.0457 40 24 40C12.9543 40 4 31.0457 4 20C4 8.9543 12.9543 0 24 0C35.0457 0 44 8.9543 44 20Z" fill="white"/>
<path fill-rule="evenodd" clip-rule="evenodd" d="M21.4878 10.566C22.3047 10.8383 23.1493 11.2155 24 11.6884C24.8508 11.2155 25.6954 10.8383 26.5123 10.566C28.7966 9.80457 31.1905 9.77618 32.7072 11.2929C34.2239 12.8096 34.1955 15.2035 33.4341 17.4878C33.1618 18.3047 32.7846 19.1493 32.3117 20.0001C32.7845 20.8508 33.1617 21.6954 33.434 22.5122C34.1954 24.7966 34.2238 27.1905 32.7071 28.7072C31.1904 30.2239 28.7965 30.1955 26.5122 29.434C25.6953 29.1617 24.8508 28.7845 24 28.3117C23.1493 28.7845 22.3047 29.1617 21.4879 29.434C19.2035 30.1954 16.8096 30.2238 15.293 28.7071C13.7763 27.1904 13.8046 24.7965 14.5661 22.5122C14.8384 21.6954 15.2156 20.8508 15.6884 20.0001C15.2155 19.1493 14.8383 18.3047 14.566 17.4878C13.8046 15.2035 13.7762 12.8096 15.2929 11.2929C16.8096 9.77621 19.2035 9.8046 21.4878 10.566ZM31.5367 16.8554C32.223 14.7965 31.9855 13.3995 31.293 12.7071C30.6005 12.0146 29.2036 11.7771 27.1447 12.4634C26.7587 12.5921 26.3605 12.7504 25.954 12.9373C26.894 13.6179 27.8215 14.4073 28.7071 15.2929C29.5927 16.1785 30.3822 17.106 31.0628 18.0461C31.2497 17.6396 31.408 17.2414 31.5367 16.8554ZM19.293 15.2929C20.1786 14.4073 21.106 13.6179 22.0461 12.9373C21.6396 12.7504 21.2414 12.5921 20.8554 12.4634C18.7965 11.7771 17.3995 12.0147 16.7071 12.7071C16.0146 13.3996 15.7771 14.7965 16.4634 16.8554C16.5921 17.2414 16.7503 17.6396 16.9373 18.0461C17.6179 17.106 18.4073 16.1785 19.293 15.2929ZM28.7072 24.7071C29.5928 23.8215 30.3822 22.8941 31.0628 21.954C31.2497 22.3605 31.408 22.7587 31.5366 23.1447C32.2229 25.2035 31.9854 26.6005 31.2929 27.293C30.6005 27.9854 29.2035 28.2229 27.1447 27.5367C26.7586 27.408 26.3605 27.2497 25.954 27.0628C26.8941 26.3822 27.8216 25.5927 28.7072 24.7071ZM19.2929 24.7072C20.1785 25.5928 21.106 26.3822 22.0461 27.0628C21.6396 27.2497 21.2414 27.408 20.8554 27.5366C18.7966 28.2229 17.3996 27.9854 16.7072 27.2929C16.0147 26.6005 15.7772 25.2035 16.4635 23.1447C16.5921 22.7587 16.7504 22.3605 16.9373 21.954C17.6179 22.8941 18.4073 23.8216 19.2929 24.7072ZM23 20C23 19.4477 23.4477 19 24 19C24.5523 19 25 19.4477 25 20C25 20.5523 24.5523 21 24 21C23.4477 21 23 20.5523 23 20ZM24 17C22.3431 17 21 18.3431 21 20C21 21.6568 22.3431 23 24 23C25.6569 23 27 21.6568 27 20C27 18.3431 25.6569 17 24 17Z" fill="black"/>
</g>
<defs>
<filter id="filter0_d_139_12829" x="0" y="0" width="48" height="48" filterUnits="userSpaceOnUse" color-interpolation-filters="sRGB">
<feFlood flood-opacity="0" result="BackgroundImageFix"/>
<feColorMatrix in="SourceAlpha" type="matrix" values="0 0 0 0 0 0 0 0 0 0 0 0 0 0 0 0 0 0 127 0" result="hardAlpha"/>
<feOffset dy="4"/>
<feGaussianBlur stdDeviation="2"/>
<feComposite in2="hardAlpha" operator="out"/>
<feColorMatrix type="matrix" values="0 0 0 0 0 0 0 0 0 0 0 0 0 0 0 0 0 0 0.25 0"/>
<feBlend mode="normal" in2="BackgroundImageFix" result="effect1_dropShadow_139_12829"/>
<feBlend mode="normal" in="SourceGraphic" in2="effect1_dropShadow_139_12829" result="shape"/>
</filter>
</defs>
</svg>
