<svg width="48" height="48" viewBox="0 0 48 48" fill="none" xmlns="http://www.w3.org/2000/svg">
<g filter="url(#filter0_d_139_12835)">
<path d="M44 22C44 33.0457 35.0457 42 24 42C12.9543 42 4 33.0457 4 22C4 10.9543 12.9543 2 24 2C35.0457 2 44 10.9543 44 22Z" fill="white"/>
<circle cx="24" cy="18" r="4" fill="#222222"/>
<path d="M17.3379 27.3206C17.999 24.5269 20.7717 23 23.6426 23H24.3574C27.2283 23 30.001 24.5269 30.6621 27.3206C30.79 27.8611 30.8917 28.4268 30.9489 29.0016C31.0036 29.5512 30.5523 30 30 30H18C17.4477 30 16.9964 29.5512 17.0511 29.0016C17.1083 28.4268 17.21 27.8611 17.3379 27.3206Z" fill="#222222"/>
<ellipse cx="31.9993" cy="19.6666" rx="3.33333" ry="3.33333" fill="#222222"/>
<path d="M26.3825 27.7246C26.9133 25.2033 29.4228 23.8333 31.9993 23.8333V23.8333C34.5759 23.8333 37.0854 25.2033 37.6162 27.7246C37.681 28.0325 37.7345 28.3487 37.7721 28.6689C37.8365 29.2174 37.385 29.6666 36.8327 29.6666H27.166C26.6137 29.6666 26.1622 29.2174 26.2266 28.6689C26.2642 28.3487 26.3177 28.0325 26.3825 27.7246Z" fill="#222222"/>
<ellipse cx="15.9993" cy="19.6666" rx="3.33333" ry="3.33333" fill="#222222"/>
<path d="M10.3825 27.7246C10.9133 25.2033 13.4228 23.8333 15.9993 23.8333V23.8333C18.5759 23.8333 21.0854 25.2033 21.6162 27.7246C21.681 28.0325 21.7345 28.3487 21.7721 28.6689C21.8365 29.2174 21.385 29.6666 20.8327 29.6666H11.166C10.6137 29.6666 10.1622 29.2174 10.2266 28.6689C10.2642 28.3487 10.3177 28.0325 10.3825 27.7246Z" fill="#222222"/>
</g>
<defs>
<filter id="filter0_d_139_12835" x="0" y="0" width="48" height="48" filterUnits="userSpaceOnUse" color-interpolation-filters="sRGB">
<feFlood flood-opacity="0" result="BackgroundImageFix"/>
<feColorMatrix in="SourceAlpha" type="matrix" values="0 0 0 0 0 0 0 0 0 0 0 0 0 0 0 0 0 0 127 0" result="hardAlpha"/>
<feOffset dy="2"/>
<feGaussianBlur stdDeviation="2"/>
<feComposite in2="hardAlpha" operator="out"/>
<feColorMatrix type="matrix" values="0 0 0 0 0 0 0 0 0 0 0 0 0 0 0 0 0 0 0.25 0"/>
<feBlend mode="normal" in2="BackgroundImageFix" result="effect1_dropShadow_139_12835"/>
<feBlend mode="normal" in="SourceGraphic" in2="effect1_dropShadow_139_12835" result="shape"/>
</filter>
</defs>
</svg>
