<svg width="48" height="48" viewBox="0 0 48 48" fill="none" xmlns="http://www.w3.org/2000/svg">
<g filter="url(#filter0_d_149_2051)">
<path d="M44 22C44 33.0457 35.0457 42 24 42C12.9543 42 4 33.0457 4 22C4 10.9543 12.9543 2 24 2C35.0457 2 44 10.9543 44 22Z" fill="white"/>
<path fill-rule="evenodd" clip-rule="evenodd" d="M23.9506 32C29.4735 32 33.9506 27.5228 33.9506 22C33.9506 16.4772 29.4735 12 23.9506 12C18.7653 12 14.5017 15.9467 14 21H23.5364L20.2435 17.7071L21.6577 16.2929L26.6577 21.2929L27.3648 22L26.6577 22.7071L21.6577 27.7071L20.2435 26.2929L23.5364 23H14C14.5017 28.0533 18.7653 32 23.9506 32Z" fill="#222222"/>
</g>
<defs>
<filter id="filter0_d_149_2051" x="0" y="0" width="48" height="48" filterUnits="userSpaceOnUse" color-interpolation-filters="sRGB">
<feFlood flood-opacity="0" result="BackgroundImageFix"/>
<feColorMatrix in="SourceAlpha" type="matrix" values="0 0 0 0 0 0 0 0 0 0 0 0 0 0 0 0 0 0 127 0" result="hardAlpha"/>
<feOffset dy="2"/>
<feGaussianBlur stdDeviation="2"/>
<feComposite in2="hardAlpha" operator="out"/>
<feColorMatrix type="matrix" values="0 0 0 0 0 0 0 0 0 0 0 0 0 0 0 0 0 0 0.25 0"/>
<feBlend mode="normal" in2="BackgroundImageFix" result="effect1_dropShadow_149_2051"/>
<feBlend mode="normal" in="SourceGraphic" in2="effect1_dropShadow_149_2051" result="shape"/>
</filter>
</defs>
</svg>
