<svg width="48" height="48" viewBox="0 0 48 48" fill="none" xmlns="http://www.w3.org/2000/svg">
<g filter="url(#filter0_d_149_2039)">
<path d="M44 22C44 33.0457 35.0457 42 24 42C12.9543 42 4 33.0457 4 22C4 10.9543 12.9543 2 24 2C35.0457 2 44 10.9543 44 22Z" fill="white"/>
<path fill-rule="evenodd" clip-rule="evenodd" d="M25.3252 25.0763C24.8886 25.0257 24.4458 25 24.0002 25C22.019 25 20.0932 25.5085 18.5214 26.4465C17.3009 27.1749 16.3469 28.1307 15.7413 29.2183C15.4666 29.7117 15.7959 30.2902 16.3487 30.4054C19.857 31.1365 23.444 31.3594 27.0002 31.074V31H26.0002C24.3434 31 23.0002 29.6569 23.0002 28C23.0002 26.5753 23.9934 25.3825 25.3252 25.0763Z" fill="#222222"/>
<path d="M30 24L30 32" stroke="#222222" stroke-width="2.5" stroke-linecap="round"/>
<path d="M34 28L26 28" stroke="#222222" stroke-width="2.5" stroke-linecap="round"/>
<circle cx="24" cy="18" r="5" fill="#222222"/>
</g>
<defs>
<filter id="filter0_d_149_2039" x="0" y="0" width="48" height="48" filterUnits="userSpaceOnUse" color-interpolation-filters="sRGB">
<feFlood flood-opacity="0" result="BackgroundImageFix"/>
<feColorMatrix in="SourceAlpha" type="matrix" values="0 0 0 0 0 0 0 0 0 0 0 0 0 0 0 0 0 0 127 0" result="hardAlpha"/>
<feOffset dy="2"/>
<feGaussianBlur stdDeviation="2"/>
<feComposite in2="hardAlpha" operator="out"/>
<feColorMatrix type="matrix" values="0 0 0 0 0 0 0 0 0 0 0 0 0 0 0 0 0 0 0.25 0"/>
<feBlend mode="normal" in2="BackgroundImageFix" result="effect1_dropShadow_149_2039"/>
<feBlend mode="normal" in="SourceGraphic" in2="effect1_dropShadow_149_2039" result="shape"/>
</filter>
</defs>
</svg>
