<svg width="43" height="27" viewBox="0 0 43 27" fill="none" xmlns="http://www.w3.org/2000/svg">
<path d="M33.978 18.3076C37.5 19.5 39.5 20.5 41.6251 22.1538" stroke="#544673" stroke-width="2" stroke-linecap="round"/>
<path d="M8.64706 18.3076C5 19.5 3.5 20.5 1 22.1538" stroke="#544673" stroke-width="2" stroke-linecap="round"/>
<path d="M13 21H30L34 27H9L13 21Z" fill="#544673"/>
<path d="M28 7.5C28 11.0899 25.0899 14 21.5 14C17.9101 14 15 11.0899 15 7.5C15 3.91015 17.9101 1 21.5 1C25.0899 1 28 3.91015 28 7.5Z" fill="#544673"/>
<path d="M12 7.5C12 10.5376 15 13.5 10.5 13.5C7.46243 13.5 5 10.5376 5 7.5C5 4.46243 7.46243 2 10.5 2C15 2 12 4.46243 12 7.5Z" fill="#544673"/>
<path d="M31.2512 7.50659C31.2512 10.5442 28.2512 13.5066 32.7512 13.5066C35.7888 13.5066 38.2512 10.5442 38.2512 7.50659C38.2512 4.46903 35.7888 2.00659 32.7512 2.00659C28.2512 2.00659 31.2512 4.46903 31.2512 7.50659Z" fill="#544673"/>
<path d="M31.3173 3.22148C31.8348 3.0285 32.3944 2.92308 32.9786 2.92308C35.6182 2.92308 37.758 5.07556 37.758 7.73077C37.758 10.386 35.6182 12.5385 32.9786 12.5385C32.3944 12.5385 31.8348 12.4331 31.3173 12.24M9.05985 26C10.3816 21.5631 13.7819 20.2308 21.4863 20.2308C29.1907 20.2308 32.591 21.5631 33.9128 26M33.9779 18.3077C38.5719 18.4904 40.7249 19.5352 41.625 22.1538M8.64706 18.3077C4.05309 18.4904 1.90006 19.5352 1 22.1538M11.9378 3.22148C11.4202 3.0285 10.8607 2.92308 10.2764 2.92308C7.63686 2.92308 5.49702 5.07556 5.49702 7.73077C5.49702 10.386 7.63686 12.5385 10.2764 12.5385C10.8607 12.5385 11.4202 12.4331 11.9378 12.24M28.1775 7.73077C28.1775 11.4481 25.1818 14.4615 21.4863 14.4615C17.7909 14.4615 14.7951 11.4481 14.7951 7.73077C14.7951 4.01346 17.7909 1 21.4863 1C25.1818 1 28.1775 4.01346 28.1775 7.73077Z" stroke="#544673" stroke-width="2" stroke-linecap="round"/>
</svg>
